<?xml version="1.0" standalone="no"?>
<!DOCTYPE svg PUBLIC "-//W3C//DTD SVG 20010904//EN"
 "http://www.w3.org/TR/2001/REC-SVG-20010904/DTD/svg10.dtd">
<svg version="1.0" xmlns="http://www.w3.org/2000/svg"
 width="300.000000pt" height="329.000000pt" viewBox="0 0 300.000000 329.000000"
 preserveAspectRatio="xMidYMid meet">
<metadata>
Created by potrace 1.10, written by Peter Selinger 2001-2011
</metadata>
<g transform="translate(0.000000,329.000000) scale(0.100000,-0.100000)"
fill="#000000" stroke="none">
<path d="M1417 3195 c-123 -17 -163 -30 -208 -65 -20 -16 -56 -33 -80 -40 -96
-24 -173 -69 -286 -166 -73 -63 -116 -127 -143 -209 -16 -52 -31 -78 -58 -102
-36 -32 -72 -43 -72 -23 0 6 -4 10 -10 10 -13 0 -13 -45 0 -92 14 -47 27 -56
22 -15 -2 19 3 40 13 52 15 19 16 19 10 -10 -3 -16 -1 -36 4 -43 6 -10 11 -2
16 25 7 40 30 73 51 73 7 0 22 30 35 68 35 108 63 153 135 223 111 106 184
150 304 183 32 9 66 26 80 41 26 27 108 56 156 55 16 -1 67 4 114 10 107 14
241 5 289 -20 42 -21 98 -79 130 -133 24 -40 75 -78 156 -120 59 -29 124 -96
156 -159 28 -55 79 -212 79 -243 0 -19 8 -28 34 -39 49 -21 111 -80 134 -129
41 -89 78 -374 67 -517 -3 -47 -15 -125 -26 -175 -11 -49 -22 -100 -24 -111
-5 -24 16 -34 73 -34 32 0 32 0 32 -50 0 -37 -6 -57 -20 -72 -11 -12 -25 -39
-33 -62 -9 -28 -20 -42 -37 -46 -21 -5 -25 -15 -36 -81 -32 -188 -120 -278
-294 -300 -83 -10 -201 5 -259 33 -90 44 -172 157 -187 259 -3 24 -18 70 -33
101 l-26 58 -75 0 c-41 0 -85 -3 -97 -6 -29 -8 -59 -71 -73 -154 -14 -82 -61
-181 -110 -230 -71 -71 -187 -107 -314 -97 -102 9 -163 34 -222 92 -43 42 -56
63 -77 130 -14 44 -29 97 -33 117 -5 30 -11 37 -32 40 -19 2 -28 11 -34 34 -4
16 -19 41 -33 54 -20 19 -25 33 -25 71 0 46 1 47 36 54 31 5 35 9 30 28 -32
132 -77 379 -82 455 -7 109 6 240 38 379 20 89 21 94 4 112 -26 29 -45 89 -46
145 0 63 -20 50 -27 -18 -5 -36 0 -57 22 -102 30 -61 30 -58 -1 -214 -17 -91
-24 -333 -11 -410 4 -25 18 -94 31 -155 36 -161 36 -166 -2 -209 -36 -41 -40
-75 -15 -121 9 -16 24 -46 34 -65 11 -19 34 -50 53 -70 22 -23 40 -58 55 -105
55 -184 150 -258 346 -272 91 -6 179 8 240 37 88 43 169 152 196 265 7 28 16
67 21 87 15 63 44 88 107 91 48 1 56 -1 82 -31 16 -17 31 -44 34 -59 32 -160
103 -264 218 -325 35 -19 62 -23 169 -26 139 -4 208 9 278 53 68 43 124 137
142 237 7 42 19 70 40 93 46 53 93 154 93 202 0 48 -34 93 -71 93 -29 0 -33
21 -17 95 42 189 38 403 -12 623 -24 104 -67 166 -160 229 -25 17 -35 38 -60
119 -53 180 -115 269 -228 331 -75 40 -129 88 -187 165 -19 25 -59 61 -87 78
-51 31 -58 33 -175 36 -72 2 -164 -3 -221 -11z"/>
<path d="M1465 3149 c-27 -5 -63 -9 -80 -9 -50 1 -112 -21 -147 -51 -17 -16
-50 -34 -73 -40 -117 -31 -190 -73 -298 -169 -71 -64 -96 -106 -142 -240 -40
-114 -55 -141 -55 -96 0 43 -17 21 -31 -39 -10 -44 -15 -53 -26 -44 -9 8 -13
8 -13 1 0 -6 12 -20 26 -31 18 -14 22 -21 11 -21 -8 0 -30 12 -48 28 -34 28
-32 14 4 -25 19 -21 19 -22 -1 -110 -55 -233 -54 -385 3 -658 20 -99 39 -185
41 -192 1 -6 11 -9 21 -7 15 4 23 24 36 96 10 50 29 118 43 152 21 50 26 75
24 141 -1 80 28 254 50 295 16 29 30 25 72 -21 35 -38 41 -41 77 -36 56 7 86
32 133 112 43 75 94 135 114 135 14 0 24 -22 24 -52 0 -19 4 -20 49 -15 69 8
141 48 203 111 61 63 89 76 159 76 47 0 49 -1 39 -21 -6 -11 -26 -29 -43 -39
-23 -14 -27 -20 -14 -20 25 0 59 18 78 42 15 19 20 19 110 8 218 -26 343 -67
408 -134 32 -33 36 -46 90 -293 31 -142 64 -270 73 -284 23 -37 43 -86 57
-146 14 -57 41 -74 41 -25 0 15 9 65 21 112 11 47 23 128 26 180 10 175 -34
461 -83 531 -28 41 -87 84 -128 95 -22 5 -26 12 -26 43 0 54 -56 212 -99 279
-42 64 -63 81 -159 132 -62 33 -113 82 -164 158 -15 22 -48 53 -75 69 -45 26
-56 28 -163 30 -63 1 -137 -3 -165 -8z m308 -48 c35 -21 79 -65 94 -94 5 -9
33 -42 63 -73 l53 -55 -69 2 c-88 3 -202 -23 -314 -72 -126 -56 -290 -176
-290 -214 0 -12 13 -6 51 27 130 111 271 185 415 219 110 25 179 22 243 -10
51 -26 72 -58 73 -109 0 -40 -34 -132 -50 -132 -4 0 -45 14 -91 30 -224 82
-442 74 -586 -22 -69 -46 -35 -48 51 -4 38 19 89 40 114 46 45 12 183 15 230
5 14 -3 45 -10 71 -15 25 -5 65 -16 90 -25 90 -34 119 -40 137 -29 49 31 74
174 39 227 -10 15 -15 27 -12 27 12 0 85 -82 101 -112 28 -53 74 -196 74 -228
0 -17 5 -38 11 -48 10 -15 7 -23 -15 -45 -14 -14 -26 -33 -26 -41 0 -27 -18
-26 -78 5 -65 33 -237 72 -375 84 -42 4 -80 11 -83 16 -7 12 -91 11 -133 -1
-18 -5 -61 -36 -95 -68 -61 -59 -105 -87 -159 -103 -25 -7 -33 -4 -55 21 -29
33 -65 39 -99 15 -12 -8 -45 -54 -74 -101 -51 -83 -91 -124 -123 -124 -9 0
-33 15 -53 33 -21 19 -46 36 -55 40 -23 8 -64 -27 -77 -66 -21 -64 -41 -194
-41 -267 0 -51 -6 -91 -20 -125 -11 -27 -27 -77 -36 -109 -17 -61 -27 -61 -37
-1 -3 17 -15 71 -28 120 -44 175 -26 506 35 655 8 19 17 51 21 70 3 20 22 54
44 78 l37 43 -4 -60 c-4 -53 -2 -60 18 -71 28 -15 45 -1 61 48 36 115 137 220
280 293 62 31 89 66 89 117 0 47 -30 65 -95 60 -93 -8 -60 18 80 62 22 7 62
28 89 47 26 18 51 33 55 34 252 34 399 34 454 0z m-615 -173 c28 -28 4 -91
-41 -109 -58 -24 -172 -106 -223 -161 -53 -56 -86 -110 -110 -182 -14 -40 -14
-40 -9 34 9 156 78 295 178 364 81 56 178 81 205 54z m1219 -548 c68 -41 102
-157 110 -382 4 -115 3 -158 -6 -158 -7 0 -11 20 -11 53 -1 142 -73 278 -170
322 -41 19 -50 36 -50 102 0 33 5 46 26 62 33 26 60 26 101 1z m-18 -245 c42
-48 60 -94 78 -195 11 -62 21 -92 38 -110 23 -24 24 -29 15 -93 -9 -63 -24
-107 -35 -107 -8 0 -75 147 -75 164 0 9 -9 56 -20 104 -29 121 -48 212 -53
245 -6 38 14 35 52 -8z"/>
<path d="M1830 2838 c-119 -19 -309 -102 -396 -174 l-29 -23 55 21 c85 32 258
37 374 9 49 -12 115 -32 147 -45 l58 -23 20 48 c12 26 21 57 21 69 0 85 -116
140 -250 118z m134 -29 c77 -21 112 -97 69 -147 -18 -20 -18 -20 -105 9 -94
30 -183 44 -305 48 -13 1 -23 4 -23 9 0 6 51 33 70 38 3 0 19 6 35 13 41 17
142 39 185 40 19 1 52 -4 74 -10z"/>
<path d="M1020 2894 c-102 -47 -174 -140 -214 -273 -22 -76 -20 -94 7 -42 30
60 131 159 206 201 34 19 75 43 91 53 31 17 55 61 44 78 -10 17 -79 9 -134
-17z m95 -15 c0 -7 -30 -30 -68 -50 -37 -21 -84 -50 -105 -67 -55 -42 -63 -46
-55 -25 21 56 83 110 168 144 45 19 60 18 60 -2z"/>
<path d="M2274 2355 c-19 -29 -12 -115 10 -115 21 0 91 -55 122 -96 16 -20 39
-66 51 -103 l24 -66 -6 70 c-15 166 -48 280 -92 315 -37 29 -88 27 -109 -5z
m93 -20 c24 -17 67 -121 59 -142 -5 -12 -44 12 -123 77 -14 11 -18 62 -6 73
11 12 48 8 70 -8z"/>
<path d="M1615 2423 c-11 -2 -30 -6 -42 -8 -12 -3 -45 -29 -73 -59 -70 -73
-153 -117 -227 -119 l-58 -2 -3 33 c-2 17 -7 32 -12 32 -12 0 -52 -54 -92
-124 -41 -73 -92 -116 -147 -123 -39 -5 -44 -3 -82 37 -28 29 -44 39 -51 32
-20 -20 -49 -195 -47 -282 1 -68 -3 -94 -19 -131 -24 -51 -47 -134 -58 -205
l-7 -47 39 7 c184 31 410 11 606 -54 98 -33 122 -37 150 -29 18 5 74 9 123 9
84 -1 98 2 208 44 158 61 218 71 433 71 l181 0 -18 60 c-10 33 -31 85 -47 115
-20 39 -44 127 -82 304 -60 275 -60 276 -155 332 -45 26 -221 66 -345 79 -58
6 -67 5 -84 -14 -25 -28 -81 -41 -131 -32 l-40 7 30 8 c37 9 95 44 95 57 0 9
-10 10 -45 2z m246 -68 c186 -26 295 -69 335 -131 8 -11 24 -63 35 -115 53
-237 61 -275 64 -294 7 -47 28 -113 47 -145 28 -48 49 -108 39 -114 -4 -3 -75
-7 -157 -10 -207 -7 -255 -16 -424 -78 -86 -32 -109 -36 -231 -42 -130 -5
-139 -5 -225 23 -86 28 -147 43 -229 56 -22 4 -115 7 -207 6 -155 -1 -168 0
-168 16 0 29 25 115 49 168 18 40 23 67 22 132 -2 81 13 197 28 221 6 9 18 8
53 -8 93 -41 167 -2 252 133 36 56 37 57 61 41 52 -34 205 14 288 91 37 34 39
35 68 19 38 -19 89 -12 144 21 22 13 43 24 46 24 3 1 52 -6 110 -14z"/>
<path d="M1549 2016 c-53 -9 -119 -36 -119 -49 0 -5 222 42 228 47 3 3 1 6 -4
7 -5 0 -16 2 -24 3 -8 2 -45 -2 -81 -8z"/>
<path d="M1557 1974 c-60 -12 -111 -25 -115 -28 -3 -3 21 -6 52 -6 69 0 162
25 170 45 3 8 4 14 3 14 -1 -1 -51 -12 -110 -25z"/>
<path d="M2045 1449 c-264 -36 -341 -115 -287 -296 55 -179 167 -258 367 -257
182 0 278 79 321 261 18 79 14 143 -15 208 -17 37 -29 50 -67 67 -56 24 -207
32 -319 17z m305 -55 c51 -30 65 -65 65 -164 -1 -76 -4 -92 -35 -155 -40 -81
-82 -114 -174 -140 -92 -26 -225 -3 -302 54 -75 54 -143 194 -130 266 8 41 47
90 89 112 97 49 418 68 487 27z"/>
<path d="M846 1419 c-73 -17 -104 -38 -127 -86 -31 -65 -30 -164 4 -261 34
-99 64 -134 144 -174 62 -30 75 -33 163 -33 191 1 303 76 361 243 50 142 6
238 -128 278 -117 36 -332 53 -417 33z m290 -44 c118 -21 149 -32 189 -67 64
-55 67 -121 14 -235 -55 -116 -157 -174 -309 -176 -92 -1 -148 18 -211 70 -52
44 -94 168 -86 255 8 90 32 130 92 150 64 22 194 23 311 3z"/>
<path d="M1285 813 c-21 -20 -33 -52 -46 -118 -22 -109 -20 -108 -109 -16 -44
44 -88 81 -98 81 -29 0 -49 -34 -61 -102 -6 -34 -17 -101 -26 -148 -41 -232
-41 -234 -14 -267 29 -37 92 -83 111 -83 30 0 55 45 68 120 7 41 16 79 20 83
4 5 25 -13 46 -39 88 -108 99 -117 126 -111 16 4 30 18 38 37 7 16 16 30 21
30 5 0 25 -18 45 -40 65 -71 163 -81 243 -25 l34 24 42 -30 c44 -31 105 -46
148 -35 13 3 41 17 61 31 38 26 39 26 60 7 27 -25 106 -52 152 -52 117 0 180
108 123 209 -19 34 -21 44 -11 66 17 38 15 59 -10 82 -39 36 -98 54 -173 54
-38 0 -91 0 -116 2 -26 1 -59 -5 -73 -12 -20 -11 -31 -12 -51 -3 -35 16 -61
15 -100 -4 -32 -15 -35 -14 -75 12 -54 36 -137 40 -193 9 -43 -23 -50 -19 -38
21 30 99 33 134 16 160 -15 24 -105 74 -132 74 -6 0 -19 -7 -28 -17z m83 -42
l58 -29 -57 -234 c-32 -128 -58 -243 -59 -256 0 -13 -4 -22 -9 -20 -5 2 -51
59 -102 127 l-94 124 -25 -150 -25 -150 -55 45 c-30 25 -54 52 -53 61 2 21 73
433 76 444 1 4 49 -45 107 -109 103 -116 104 -117 111 -88 4 16 19 82 34 147
15 64 29 117 31 117 3 0 31 -13 62 -29z m269 -232 c34 -21 63 -64 63 -94 0 -8
5 -15 10 -15 6 0 10 8 10 19 0 10 5 32 11 50 10 30 13 31 65 31 30 0 54 -2 54
-5 0 -4 -7 -19 -15 -34 -20 -40 -37 -119 -29 -143 4 -14 13 -18 32 -16 21 2
29 11 38 43 7 22 13 66 13 97 1 55 2 57 34 63 17 4 40 9 51 12 18 5 18 0 12
-88 -9 -122 -28 -180 -72 -219 -28 -24 -44 -30 -80 -30 -76 0 -117 36 -126
110 -4 25 -4 25 -21 -7 -67 -124 -221 -130 -283 -11 -23 44 -18 125 11 175 46
78 149 107 222 62z m566 -36 l47 -24 -31 -39 -32 -39 -39 20 c-22 11 -47 18
-56 16 -12 -3 -4 -10 23 -21 22 -9 57 -24 78 -33 69 -30 87 -104 38 -154 -25
-24 -38 -29 -79 -29 -28 0 -76 10 -108 22 l-57 22 39 33 c22 19 45 30 54 27 8
-3 28 -8 44 -11 49 -10 22 12 -44 36 -69 25 -96 62 -86 114 19 94 96 116 209
60z"/>
<path d="M1519 431 c-34 -34 -37 -63 -9 -91 26 -26 52 -25 77 3 35 38 37 63 9
92 -32 32 -41 31 -77 -4z m49 -42 c-2 -6 -8 -10 -13 -10 -5 0 -11 4 -13 10 -2
6 4 11 13 11 9 0 15 -5 13 -11z"/>
<path d="M1493 42 c-1318 -2 -1493 -4 -1493 -17 0 -13 175 -15 1500 -15 1299
0 1500 2 1500 14 0 8 -3 16 -7 18 -5 2 -680 2 -1500 0z"/>
</g>
</svg>
